<?xml version="1.0" encoding="UTF-8" standalone="no"?>
<svg xmlns="http://www.w3.org/2000/svg"
     width="1000.0"
     height="1000.0"
     viewBox="0 0 1000.0 1000.0" >
<path style="fill:none;stroke:#000000;stroke-width:1px" id="2" d="m 500,500 0,-54 17,22 46,-29 -10,26 49,24 -27,5 6,54 -19,-20 -43,33 7,-27 -51,-18 27,-8 z" />
<path style="fill:none;stroke:#000000;stroke-width:1px" id="3" d="m 348,746 37,-33 3,-50 -33,-37 -50,-3 -37,33 -3,50 33,37 50,3 -15,48 23,45 48,15 45,-23 15,-48 -23,-45 -48,-15 -45,23 -10,-49 -42,-27 -49,10 -27,42 10,49 42,27 49,-10 27,-42 33,37 50,3 37,-33 3,-50 -33,-37 -50,-3 -37,33 -3,50 -48,-15 -45,23 -15,48 23,45 48,15 45,-23 15,-48 -23,-45 49,-10 27,-42 -10,-49 -42,-27 -49,10 -27,42 10,49 42,27 -37,33 -3,50 33,37 50,3 37,-33 3,-50 -33,-37 -50,-3 15,-48 -23,-45 -48,-15 -45,23 -15,48 23,45 48,15 45,-23 10,49 42,27 49,-10 27,-42 -10,-49 -42,-27 -49,10 -27,42 -33,-37 -50,-3 -37,33 -3,50 33,37 50,3 37,-33 3,-50 48,15 45,-23 15,-48 -23,-45 -48,-15 -45,23 -15,48 23,45 -49,10 -27,42 10,49 42,27 49,-10 27,-42 -10,-49 -42,-27 37,-33 3,-50 -33,-37 -50,-3 -37,33 -3,50 33,37 50,3 -15,48 23,45 48,15 45,-23 15,-48 -23,-45 -48,-15 -45,23 -10,-49 -42,-27 -49,10 -27,42 10,49 42,27 49,-10 27,-42 33,37 50,3 37,-33 3,-50 -33,-37 -50,-3 -37,33 -3,50 -48,-15 -45,23 -15,48 23,45 48,15 45,-23 15,-48 -23,-45 49,-10 27,-42 -10,-49 -42,-27 -49,10 -27,42 10,49 42,27 -37,33 -3,50 33,37 50,3 37,-33 3,-50 -33,-37 -50,-3 15,-48 -23,-45 -48,-15 -45,23 -15,48 23,45 48,15 45,-23 10,49 42,27 49,-10 27,-42 -10,-49 -42,-27 -49,10 -27,42 -33,-37 -50,-3 -37,33 -3,50 33,37 50,3 37,-33 3,-50 48,15 45,-23 15,-48 -23,-45 -48,-15 -45,23 -15,48 23,45 -49,10 -27,42 10,49 42,27 49,-10 27,-42 -10,-49 -42,-27 37,-33 3,-50 -33,-37 -50,-3 -37,33 -3,50 33,37 50,3 -15,48 23,45 48,15 45,-23 15,-48 -23,-45 -48,-15 -45,23 -10,-49 -42,-27 -49,10 -27,42 10,49 42,27 49,-10 27,-42 33,37 50,3 37,-33 3,-50 -33,-37 -50,-3 -37,33 -3,50 -48,-15 -45,23 -15,48 23,45 48,15 45,-23 15,-48 -23,-45 49,-10 27,-42 -10,-49 -42,-27 -49,10 -27,42 10,49 42,27 -37,33 -3,50 33,37 50,3 37,-33 3,-50 -33,-37 -50,-3 15,-48 -23,-45 -48,-15 -45,23 -15,48 23,45 48,15 45,-23 10,49 42,27 49,-10 27,-42 -10,-49 -42,-27 -49,10 -27,42 -33,-37 -50,-3 -37,33 -3,50 33,37 50,3 37,-33 3,-50 48,15 45,-23 15,-48 -23,-45 -48,-15 -45,23 -15,48 23,45 -49,10 -27,42 10,49 42,27 49,-10 27,-42 -10,-49 -42,-27 37,-33 3,-50 -33,-37 -50,-3 -37,33 -3,50 33,37 50,3 -15,48 23,45 48,15 45,-23 15,-48 -23,-45 -48,-15 -45,23 -10,-49 -42,-27 -49,10 -27,42 10,49 42,27 49,-10 27,-42 33,37 50,3 37,-33 3,-50 -33,-37 -50,-3 -37,33 -3,50 -48,-15 -45,23 -15,48 23,45 48,15 45,-23 15,-48 -23,-45 49,-10 27,-42 -10,-49 -42,-27 -49,10 -27,42 10,49 42,27 -37,33 -3,50 33,37 50,3 37,-33 3,-50 -33,-37 -50,-3 15,-48 -23,-45 -48,-15 -45,23 -15,48 23,45 48,15 45,-23 10,49 42,27 49,-10 27,-42 -10,-49 -42,-27 -49,10 -27,42 -33,-37 -50,-3 -37,33 -3,50 33,37 50,3 37,-33 3,-50 48,15 45,-23 15,-48 -23,-45 -48,-15 -45,23 -15,48 23,45 -49,10 -27,42 10,49 42,27 49,-10 27,-42 -10,-49 -42,-27 37,-33 3,-50 -33,-37 -50,-3 -37,33 -3,50 33,37 50,3 -15,48 23,45 48,15 45,-23 15,-48 -23,-45 -48,-15 -45,23 -10,-49 -42,-27 -49,10 -27,42 10,49 42,27 49,-10 27,-42 33,37 50,3 37,-33 3,-50 -33,-37 -50,-3 -37,33 -3,50 -48,-15 -45,23 -15,48 23,45 48,15 45,-23 15,-48 -23,-45 49,-10 27,-42 -10,-49 -42,-27 -49,10 -27,42 10,49 42,27 -37,33 -3,50 33,37 50,3 37,-33 3,-50 -33,-37 -50,-3 15,-48 -23,-45 -48,-15 -45,23 -15,48 23,45 48,15 45,-23 10,49 42,27 49,-10 27,-42 -10,-49 -42,-27 -49,10 -27,42 -33,-37 -50,-3 -37,33 -3,50 33,37 50,3 37,-33 3,-50 48,15 45,-23 15,-48 -23,-45 -48,-15 -45,23 -15,48 23,45 -49,10 -27,42 10,49 42,27 49,-10 27,-42 -10,-49 -42,-27 37,-33 3,-50 -33,-37 -50,-3 -37,33 -3,50 33,37 50,3 -15,48 23,45 48,15 45,-23 15,-48 -23,-45 -48,-15 -45,23 -10,-49 -42,-27 -49,10 -27,42 10,49 42,27 49,-10 27,-42 33,37 50,3 37,-33 3,-50 -33,-37 -50,-3 -37,33 -3,50 -48,-15 -45,23 -15,48 23,45 48,15 45,-23 15,-48 -23,-45 49,-10 27,-42 -10,-49 -42,-27 -49,10 -27,42 10,49 42,27 -37,33 -3,50 33,37 50,3 37,-33 3,-50 -33,-37 -50,-3 15,-48 -23,-45 -48,-15 -45,23 -15,48 23,45 48,15 45,-23 10,49 42,27 49,-10 27,-42 -10,-49 -42,-27 -49,10 -27,42 -33,-37 -50,-3 -37,33 -3,50 33,37 50,3 37,-33 3,-50 48,15 45,-23 15,-48 -23,-45 -48,-15 -45,23 -15,48 23,45 -49,10 -27,42 10,49 42,27 49,-10 27,-42 -10,-49 -42,-27 z" />
<path style="fill:none;stroke:#000000;stroke-width:1px" id="4" d="m 739,663 -5,2 -4,3 -4,3 -3,4 -2,4 -2,5 -1,5 0,5 1,5 2,5 3,4 3,4 4,3 4,2 5,2 5,1 5,0 5,-1 5,-2 4,-3 4,-3 3,-4 2,-4 2,-5 1,-5 0,-5 -1,-5 -2,-5 -3,-4 -3,-4 -4,-3 -4,-2 -5,-2 -5,-1 -5,0 -5,1 -5,2 -4,3 -4,3 -3,4 -2,4 -2,5 -1,5 0,5 1,5 2,5 3,4 3,4 4,3 4,2 5,2 5,1 5,0 5,-1 5,-2 4,-3 4,-3 3,-4 2,-4 2,-5 1,-5 0,-5 -1,-5 -2,-5 -3,-4 -3,-4 -4,-3 -4,-2 -5,-2 -5,-1 -5,0 -5,1 -5,2 -4,3 -4,3 -3,4 -2,4 -2,5 -1,5 0,5 1,5 2,5 3,4 3,4 4,3 4,2 5,2 5,1 5,0 5,-1 5,-2 4,-3 4,-3 3,-4 2,-4 2,-5 1,-5 0,-5 -1,-5 -2,-5 -3,-4 -3,-4 -4,-3 -4,-2 -5,-2 -5,-1 -5,0 -5,1 -5,2 -4,3 -4,3 -3,4 -2,4 -2,5 -1,5 0,5 1,5 2,5 3,4 3,4 4,3 4,2 5,2 5,1 5,0 5,-1 5,-2 4,-3 4,-3 3,-4 2,-4 2,-5 1,-5 0,-5 -1,-5 -2,-5 -3,-4 -3,-4 -4,-3 -4,-2 -5,-2 -5,-1 -5,0 -5,1 z" />
<path style="fill:none;stroke:#000000;stroke-width:1px" id="5" d="m 886,632 -98,21 74,-67 -31,95 -21,-98 67,74 -95,-31 98,-21 -74,67 31,-95 21,98 -67,-74 95,31 -98,21 74,-67 -31,95 -21,-98 67,74 -95,-31 98,-21 -74,67 31,-95 21,98 -67,-74 95,31 z" />
<path style="fill:none;stroke:#000000;stroke-width:1px" id="6" d="m 150,150 37,-33 3,-50 -33,-37 -50,-3 -37,33 -3,50 33,37 50,3 -15,48 23,45 48,15 45,-23 15,-48 -23,-45 -48,-15 -45,23 -10,-49 -42,-27 -49,10 -27,42 10,49 42,27 49,-10 27,-42 33,37 50,3 37,-33 3,-50 -33,-37 -50,-3 -37,33 -3,50 -48,-15 -45,23 -15,48 23,45 48,15 45,-23 15,-48 -23,-45 49,-10 27,-42 -10,-49 -42,-27 -49,10 -27,42 10,49 42,27 -37,33 -3,50 33,37 50,3 37,-33 3,-50 -33,-37 -50,-3 15,-48 -23,-45 -48,-15 -45,23 -15,48 23,45 48,15 45,-23 10,49 42,27 49,-10 27,-42 -10,-49 -42,-27 -49,10 -27,42 -33,-37 -50,-3 -37,33 -3,50 33,37 50,3 37,-33 3,-50 48,15 45,-23 15,-48 -23,-45 -48,-15 -45,23 -15,48 23,45 -49,10 -27,42 10,49 42,27 49,-10 27,-42 -10,-49 -42,-27 37,-33 3,-50 -33,-37 -50,-3 -37,33 -3,50 33,37 50,3 -15,48 23,45 48,15 45,-23 15,-48 -23,-45 -48,-15 -45,23 -10,-49 -42,-27 -49,10 -27,42 10,49 42,27 49,-10 27,-42 33,37 50,3 37,-33 3,-50 -33,-37 -50,-3 -37,33 -3,50 -48,-15 -45,23 -15,48 23,45 48,15 45,-23 15,-48 -23,-45 49,-10 27,-42 -10,-49 -42,-27 -49,10 -27,42 10,49 42,27 -37,33 -3,50 33,37 50,3 37,-33 3,-50 -33,-37 -50,-3 15,-48 -23,-45 -48,-15 -45,23 -15,48 23,45 48,15 45,-23 10,49 42,27 49,-10 27,-42 -10,-49 -42,-27 -49,10 -27,42 -33,-37 -50,-3 -37,33 -3,50 33,37 50,3 37,-33 3,-50 48,15 45,-23 15,-48 -23,-45 -48,-15 -45,23 -15,48 23,45 -49,10 -27,42 10,49 42,27 49,-10 27,-42 -10,-49 -42,-27 37,-33 3,-50 -33,-37 -50,-3 -37,33 -3,50 33,37 50,3 -15,48 23,45 48,15 45,-23 15,-48 -23,-45 -48,-15 -45,23 -10,-49 -42,-27 -49,10 -27,42 10,49 42,27 49,-10 27,-42 33,37 50,3 37,-33 3,-50 -33,-37 -50,-3 -37,33 -3,50 -48,-15 -45,23 -15,48 23,45 48,15 45,-23 15,-48 -23,-45 49,-10 27,-42 -10,-49 -42,-27 -49,10 -27,42 10,49 42,27 -37,33 -3,50 33,37 50,3 37,-33 3,-50 -33,-37 -50,-3 15,-48 -23,-45 -48,-15 -45,23 -15,48 23,45 48,15 45,-23 10,49 42,27 49,-10 27,-42 -10,-49 -42,-27 -49,10 -27,42 -33,-37 -50,-3 -37,33 -3,50 33,37 50,3 37,-33 3,-50 48,15 45,-23 15,-48 -23,-45 -48,-15 -45,23 -15,48 23,45 -49,10 -27,42 10,49 42,27 49,-10 27,-42 -10,-49 -42,-27 37,-33 3,-50 -33,-37 -50,-3 -37,33 -3,50 33,37 50,3 -15,48 23,45 48,15 45,-23 15,-48 -23,-45 -48,-15 -45,23 -10,-49 -42,-27 -49,10 -27,42 10,49 42,27 49,-10 27,-42 33,37 50,3 37,-33 3,-50 -33,-37 -50,-3 -37,33 -3,50 -48,-15 -45,23 -15,48 23,45 48,15 45,-23 15,-48 -23,-45 49,-10 27,-42 -10,-49 -42,-27 -49,10 -27,42 10,49 42,27 -37,33 -3,50 33,37 50,3 37,-33 3,-50 -33,-37 -50,-3 15,-48 -23,-45 -48,-15 -45,23 -15,48 23,45 48,15 45,-23 10,49 42,27 49,-10 27,-42 -10,-49 -42,-27 -49,10 -27,42 -33,-37 -50,-3 -37,33 -3,50 33,37 50,3 37,-33 3,-50 48,15 45,-23 15,-48 -23,-45 -48,-15 -45,23 -15,48 23,45 -49,10 -27,42 10,49 42,27 49,-10 27,-42 -10,-49 -42,-27 37,-33 3,-50 -33,-37 -50,-3 -37,33 -3,50 33,37 50,3 -15,48 23,45 48,15 45,-23 15,-48 -23,-45 -48,-15 -45,23 -10,-49 -42,-27 -49,10 -27,42 10,49 42,27 49,-10 27,-42 33,37 50,3 37,-33 3,-50 -33,-37 -50,-3 -37,33 -3,50 -48,-15 -45,23 -15,48 23,45 48,15 45,-23 15,-48 -23,-45 49,-10 27,-42 -10,-49 -42,-27 -49,10 -27,42 10,49 42,27 -37,33 -3,50 33,37 50,3 37,-33 3,-50 -33,-37 -50,-3 15,-48 -23,-45 -48,-15 -45,23 -15,48 23,45 48,15 45,-23 10,49 42,27 49,-10 27,-42 -10,-49 -42,-27 -49,10 -27,42 -33,-37 -50,-3 -37,33 -3,50 33,37 50,3 37,-33 3,-50 48,15 45,-23 15,-48 -23,-45 -48,-15 -45,23 -15,48 23,45 -49,10 -27,42 10,49 42,27 49,-10 27,-42 -10,-49 -42,-27 37,-33 3,-50 -33,-37 -50,-3 -37,33 -3,50 33,37 50,3 -15,48 23,45 48,15 45,-23 15,-48 -23,-45 -48,-15 -45,23 -10,-49 -42,-27 -49,10 -27,42 10,49 42,27 49,-10 27,-42 33,37 50,3 37,-33 3,-50 -33,-37 -50,-3 -37,33 -3,50 -48,-15 -45,23 -15,48 23,45 48,15 45,-23 15,-48 -23,-45 49,-10 27,-42 -10,-49 -42,-27 -49,10 -27,42 10,49 42,27 -37,33 -3,50 33,37 50,3 37,-33 3,-50 -33,-37 -50,-3 15,-48 -23,-45 -48,-15 -45,23 -15,48 23,45 48,15 45,-23 10,49 42,27 49,-10 27,-42 -10,-49 -42,-27 -49,10 -27,42 -33,-37 -50,-3 -37,33 -3,50 33,37 50,3 37,-33 3,-50 48,15 45,-23 15,-48 -23,-45 -48,-15 -45,23 -15,48 23,45 -49,10 -27,42 10,49 42,27 49,-10 27,-42 -10,-49 -42,-27 z" />
<path style="fill:none;stroke:#000000;stroke-width:1px" id="1" d="m 500,150 0,-49 -14,14 -35,-35 -21,21 35,35 -14,14 49,0 z" />
</svg>
